<?xml version="1.0" encoding="UTF-8"?>
<!--Generator: Apple Native CoreSVG 232.5-->
<!DOCTYPE svg
PUBLIC "-//W3C//DTD SVG 1.1//EN"
       "http://www.w3.org/Graphics/SVG/1.1/DTD/svg11.dtd">
<svg version="1.1" xmlns="http://www.w3.org/2000/svg" xmlns:xlink="http://www.w3.org/1999/xlink" width="63.125" height="43.1055">
 <g>
  <rect height="43.1055" opacity="0" width="63.125" x="0" y="0"/>
  <path d="M0 26.4258C0 29.707 1.85547 31.543 5.19531 31.543L13.4766 31.543C16.9922 31.543 18.8086 32.4609 21.1133 35.4102C24.9219 40.3516 30.7812 43.0664 36.9141 43.0664L44.5508 43.0664C46.4844 43.0664 47.793 41.7773 47.793 39.8633L47.793 3.08594C47.793 1.25 46.4844 0 44.5508 0L36.9141 0C30.7812 0 24.9219 2.71484 21.1133 7.63672C18.8086 10.6055 16.9922 11.543 13.4766 11.543L5.19531 11.543C1.85547 11.543 0 13.3594 0 16.6406ZM45.5664 16.4258L59.1211 16.4258C61.1328 16.4258 62.7539 14.8047 62.7539 12.793C62.7539 10.7812 61.1328 9.14062 59.1211 9.14062L45.5664 9.14062ZM45.5664 33.9258L59.1211 33.9258C61.1328 33.9258 62.7539 32.3047 62.7539 30.293C62.7539 28.2617 61.1328 26.6406 59.1211 26.6406L45.5664 26.6406Z" fill="#ffffff" fill-opacity="0.85"/>
 </g>
</svg>
